<?xml version="1.0" encoding="utf-8"?>
<!-- Generator: Adobe Illustrator 19.0.0, SVG Export Plug-In . SVG Version: 6.00 Build 0)  -->
<svg version="1.1" id="Layer_1" xmlns="http://www.w3.org/2000/svg" xmlns:xlink="http://www.w3.org/1999/xlink" x="0px" y="0px"
	 viewBox="0 0 2560 1320" style="enable-background:new 0 0 2560 1320;" xml:space="preserve">
<style type="text/css">
	.st0{fill:#C4E9F8;}
	.st1{fill:#79B302;}
	.st2{fill:#E7F4FA;}
	.st3{fill:#A2E0F5;}
	.st4{fill:#CCECF9;}
	.st5{fill:#FEFEFE;}
</style>
<g>
	<path class="st0" d="M1,613C1,410.5,1,208,0.9,5.5c0-3.7,0.8-4.6,4.6-4.6c850.3,0.1,1700.7,0.1,2551,0c3.7,0,4.6,0.8,4.6,4.6
		c-0.1,111.8-0.1,223.7-0.1,335.5c-7.3-0.7-14.9,1.6-22-2.4c-10.7-6.1-22.3-9.8-34.5-12c-22.6-4-44.2-0.8-65.1,8.2
		c-4.5,1.9-8.4,5.2-13.4,6.2c-1.4-1.4-3.1-0.9-4.7-0.9c-5.5,0-11,0.7-16.4,0.8c-26.9,0.1-53.9,1-80.8,2c-16.6,0.6-33.2,0.9-49.8,2
		c-22.9,1.5-45.8,1.8-68.7,3.3c-8.5,0.6-17,0.1-25.4,1.1c-16,1.9-32.1,2.6-48.1,3.5c-11.8,0.7-23.5,2.1-35.3,2.5
		c-19.7,0.8-39.3,3.1-59,4.8c-2.9,0.1-5.4-0.8-8-2.4c-3.5-2.2-7.3-3.9-11.1-5.6c-15.9-7-32-13.3-49-17.7c-16.9-4.4-34-8.1-51.3-9.1
		c-18.2-1-36.5-1.2-54.8,1.4c-21.3,3-42.2,7.6-62,15.9c-6.6,2.8-11.6,2.9-16-3.2c-1.4-1.9-3.8-3.2-5.7-4.8
		c-20.1-17-41.6-32-65.2-43.8c-16.3-8.1-33.1-15.2-50.5-20.8c-26.3-8.4-53-13.6-80.5-15c-10.4-0.5-20.9-0.5-31.3-0.4
		c-16.4,0.2-32.5,2-48.5,4.7c-22.1,3.7-43.7,10.1-64.5,18.4c-28.2,11.2-54.5,26.1-78.7,44.5c-24.5,18.8-46.4,40.3-64.6,65.3
		c-2.5,3.4-5,4.2-8.9,2.1c-8-4.2-16.7-6.4-25.4-8.7c-16.4-4.4-33-5.2-49.8-3.9c-5.1,0.4-10.2,1.2-15.2,2.6
		c-15,4.2-29.1,10.4-41.6,19.8c-3.1,2.3-4.7,1.2-6.3-1.6c-11.7-20-29.2-34-49.1-44.6c-22.5-12-46.7-19-72.5-19.3
		c-2.5,0-3.9-0.8-4.6-3.4c-1.3-5-3-9.9-4.9-14.6c-7.3-17.7-15.5-34.9-26.3-50.8c-10.7-15.8-22.8-30.3-36.6-43.3
		c-17.1-16.2-35.9-30.1-56.4-41.7c-16.2-9.3-33.3-16.8-51-22.7c-18.9-6.4-38.3-10.5-58.2-12.7c-23.1-2.6-46.1-2.7-69.1,0.6
		c-26.4,3.8-51.9,11-76.3,21.9c-28.9,12.9-55.1,30.1-78,52.2c-11.9,11.5-22.8,23.8-32,37.5c-1.3,1.9-2.7,3.2-5.2,3.2
		c-5.5-0.1-10.9,0.3-16.4,0.9c-14.2,1.5-28.2,4.5-41.6,9.3c-23.2,8.2-44.5,19.8-63.1,36.2c-16.8,14.8-30.9,31.6-40.6,51.8
		c-1.6,3.3-2.9,3.9-5.9,1.7c-10.5-7.6-21.9-13.7-34.1-18.3c-12.2-4.5-24.8-7.9-37.7-8.4c-12.5-0.5-25.1-0.8-37.8,1.4
		c-21.6,3.8-40.9,12.2-59,24.2c-9.1,6-16.8,13.5-24.4,21.3c-1.2,1.2-2.1,3.2-4.5,2.1c-12.4-5.3-25.4-5.4-38.6-5.4
		c-13.5,0-26.1,3.4-38,9.1c-23.7,11.4-41.1,28.9-51.1,53.5C32,449.7,32,450,43.3,449.9c8.8-0.1,17.6-0.5,26.4-0.9
		c10.3-0.4,20.5,0.4,30.8,0.2c11.9-0.2,23.8-0.1,35.6-0.1c38.4-0.2,76.9,0,115.3-0.1c10.9,0,21.9,0.5,32.8,0.2
		c13.8-0.5,27.6-0.3,41.4-0.1c11.6,0.2,23.3,0.6,34.9,0.4c11.1-0.2,22.2,0.2,33.2-0.2c22.2-0.7,44.4-0.2,66.7-0.2
		c24.2,0,48.5-0.2,72.7,0.1c10.8,0.2,21.6,0.3,32.3,0.2c13.2-0.1,26.4,0,39.7-0.2c26.8-0.5,53.6-0.3,80.3-0.1
		c18.8,0.2,37.6-0.5,56.4,0.6c12.3,0.8,24.8-0.5,37.2-0.6c6-0.1,12.1,0.9,17.9,0.4c11.8-0.9,23.4,0,35.2-0.3
		c16.6-0.4,33.3-0.6,49.9,0.4c8.1,0.5,16.5-0.1,24.7-0.4c18-0.7,36.1-0.4,54.2-0.2c18.6,0.2,37.3,0.2,55.9,0.4
		c12.8,0.2,25.8,0.1,38.7-0.3c14.8-0.5,29.5-0.3,44.3-0.1c19.6,0.2,39.3-0.4,58.9,0.7c12.9,0.7,25.8-0.6,38.7-0.6
		c10.9,0,21.8,0.7,32.8,0.8c5.8,0,11.6-0.9,17.4-0.8c10.7,0.2,10.7,0.4,7.1,10c-0.2,0.6-0.5,1.2-0.8,1.8
		c-10.8,1.5-21.6,3.1-32.4,4.6c-7.9,1.1-15.5,3.5-23.6,3.4c-1.8-0.2-3.6-0.4-5.4-0.7c-10-1.8-20-2.7-30.1-3.3
		c-9.5-0.5-18.9,0.8-28.3,1.8c-18.4,2-36,7.1-53,14.4c-7.1,3.1-13.7,7.4-21.2,9.7c-15.6,1.1-30.8,4.6-46.2,6.6
		c-11.3,1.4-22.6,3.6-33.9,5.3c-15.1,2.3-30.2,4.4-45.2,6.6c-11.6,1.7-23.2,3.7-34.9,5.4c-14.7,2.2-29.5,4.1-44.3,6.4
		c-11.6,1.7-23.2,4.2-34.9,5.5c-25.5,2.8-50.8,7.2-76.3,10.6c-25.3,3.4-50.5,7-75.8,10.6c-14.1,2-28.2,3.9-42.3,5.9
		c-7.1,1-14.1,2.2-21.1,3c-13.1,1.6-26.3,3-39.4,4.6c-8.2,1-16.4,2.4-24.6,3.4c-13.5,1.6-27,3-40.5,4.7c-14.3,1.7-28.6,4-42.9,5.2
		c-6.1,0.5-12.1,2.1-18.2,2.3c-8.3,0.3-16.5,1.6-24.7,2.4c-10.9,1.1-21.7,2.3-32.6,3.4c-7.9,0.8-15.8,1.6-23.7,2.4
		c-11.5,1.2-23.1,2.4-34.6,3.6c-8.9,0.9-17.8,1.5-26.7,2.4c-12.7,1.2-25.4,2.6-38.1,3.7c-9.3,0.8-18.6,1.3-27.8,2.3
		c-14.7,1.6-29.4,2.5-44.1,3.7c-10.3,0.8-20.6,1.3-30.8,2.3c-15,1.5-30.1,2.4-45.1,3.4c-16.2,1.1-32.4,2.3-48.7,3.1
		C42.1,611,21.6,612,1,613z"/>
	<path class="st1" d="M2561,1358c0,79.7,0,159.3,0.1,239c0,3.3-0.5,4.1-4,4.1c-850.7-0.1-1701.4-0.1-2552.1,0
		c-3.5,0-4.1-0.8-4.1-4.1C1,1519.3,1,1441.7,1,1364c6.4,0.8,12.6-1.1,18.9-1.2c25.1-0.3,50.2-2.6,75.2-3.8
		c28.6-1.3,57.1-2.1,85.7-4.2c15.6-1.1,31.2-0.6,46.9-1.8c19-1.5,38.2-0.5,57.4-2.1c15.4-1.3,30.9-1.1,46.4-1.8
		c21.4-1,42.9-1.4,64.3-2.3c18.5-0.8,36.9-0.3,55.4-1.8c16.5-1.4,33.2-0.9,49.8-1.9c26.6-1.6,53.2-0.5,79.9-2.1
		c27.9-1.6,55.9-0.4,83.9-2.1c25.2-1.5,50.6-0.7,75.9-1.9c35.7-1.7,71.6-0.8,107.4-2c51.1-1.7,102.2-0.8,153.4-2.1
		c70.4-1.7,140.9-1.1,211.4-1.9c90.1-0.9,180.2-1.6,270.4,0.7c68.6,1.7,137.3-0.2,205.9,2c51.6,1.6,103.2-0.1,154.9,2.1
		c35.9,1.6,71.9,0.3,107.9,2.1c15.8,0.8,31.6,1.3,47.4,0.3c6.8,0.2,13.5,0.5,20.3,0.7c1.4,1.1,2.9,1.1,4.5,0.8
		c27.9,1.5,55.9,0.1,83.9,2.2c22.9,1.7,45.9,0.1,68.9,1.9c19.7,1.6,39.6,0.5,59.4,2c22.6,1.7,45.2,0,67.8,2.1
		c18.7,1.8,37.6,0.2,56.4,2.1c13.2,1.4,26.6,0.7,39.9,1.6c21.4,1.5,42.9,1.6,64.3,2.3c23.4,0.7,46.8,2.7,70.3,2.8
		c1.7,0,3.3,0.4,5,0.6C2546.7,1358.4,2553.9,1358.4,2561,1358z"/>
	<path class="st0" d="M1,995c0-64.7,0-129.3,0-194c15.2-1.2,30.4,0.8,45.6,1.3c15,0.6,29.9,0.6,44.9,0.6
		c62.4,0.1,124.8,0.3,187.2-0.3c17.7-0.2,35.4-1,53.1-1.4c20.8-0.5,41.5-1.3,62.2-1.9c21.6-0.6,43.2-1.2,64.7-2.3
		c7.3-0.4,14.6-0.5,21.9-0.8c24.7-1,49.4-3.4,74.1-3.2c8,0,15.9-0.9,23.9-1.3c5.6-0.3,11.3-0.4,16.9-0.8c18.5-1.3,37-2.6,55.5-3.9
		c-1.6,1.8-4.1,0.2-6.2,1.8c6.9,2.6,13.9,2.9,20.6,4.2c12.3,2.5,24.8,4.4,37.2,6.7c9.8,1.8,19.5,3.4,29.3,5.3
		c14.1,2.7,28.4,4.6,42.7,6.8c15.2,2.4,30.4,5,45.6,7.3c15.4,2.3,30.9,4.2,46.3,6.4c17.7,2.5,35.3,5.7,53.1,7.5
		c21.3,2.1,42.4,5.3,63.6,7.5c23.4,2.4,46.7,5.1,70.1,7.3c19.4,1.8,38.9,3.7,58.4,5.3c17.7,1.4,35.4,2.7,53,4
		c19.8,1.5,39.7,2.2,59.6,3.8c12.9,1.1,25.8,1.6,38.8,2c17.8,0.5,35.5,1.2,53.3,1.9c22.1,0.9,44.2,1.6,66.3,2
		c34.5,0.7,69,0.2,103.5,0.2c1.6,0,3.5,0.4,4-2c0.7,0,1.4,0,2.1,0c0.1,0.6,0.1,1.4,0.9,1.4c0.8,0,0.9-0.8,0.9-1.4
		c6.3,0.2,11.6,4.9,18.1,3.9c2.7,0.1,5.4-0.3,8,0.3c16.5,3.5,33.4,5,50.1,7.5c26,3.9,52.2,6.9,78.3,10.3c21.8,2.9,43.6,6,65.5,8.9
		c11.3,1.5,22.7,2.7,34,4.1c7.7,0.9,15.4,2,23.2,2.9c13.5,1.6,27,3.1,40.5,4.7c9.2,1.1,18.4,2.2,27.6,3.3
		c11.2,1.3,22.4,2.5,33.6,3.7c12.7,1.4,25.3,3.1,38,4.2c11.9,1,23.7,2.3,35.6,3.3c21.1,1.8,42.1,4.8,63.2,6.6
		c19.3,1.6,38.6,3.4,57.9,5c21.5,1.8,43,3.4,64.4,5c19.2,1.4,38.4,2.7,57.6,3.9c18.4,1.2,36.8,1.9,55.2,3.2c14.4,1,28.9,1,43.3,1.9
		c21.1,1.2,42.2,1.1,63.3,2.3c13.5,0.8,26.9,0.6,40.4,0.8c1.2,0,2.3,0,3.3,0.9c-0.5,0.3-1,0.8-1.6,1c-14.6,4.2-29.2,8.3-43.8,12.4
		c-18.9,5.4-37.7,10.9-56.6,16.1c-15,4.1-30.1,8.1-45.1,12.1c-13.7,3.7-27.5,6.9-41.1,11c-12.3,3.8-25.1,5.7-37.6,8.9
		c-16.4,4.1-32.7,8.1-49.2,11.8c-21.6,4.9-43.2,10.2-64.9,14.7c-24,5-48,10-72.1,15c-9.4,2-18.7,4.2-28.2,5.9
		c-20.3,3.8-40.6,7.1-60.9,11c-9.4,1.8-19,3-28.4,4.9c-13.5,2.7-27.1,4.5-40.7,6.7c-13.2,2.1-26.3,4.4-39.5,6.4
		c-12.6,1.9-25.3,3.3-37.8,5.5c-11.9,2.1-23.9,3.6-35.9,5.2c-17.9,2.5-35.8,4.9-53.7,6.5c-18,1.6-35.8,4.3-53.7,6.8
		c-9.2,1.3-18.6,0.8-27.7,2.9c-1.4,0.3-3.1-0.1-3.4,2c-6.7,0.7-13.2-4-20-1c-6.3-1.5-12.7-1.5-19.1-1.9c-7-0.4-13.9-0.7-20.9-1.2
		c-19.5-1.5-39-2.9-58.6-3.9c-9.4-0.5-18.8-1.7-28.3-2.2c-15.5-0.8-31-2.9-46.6-3.5c-11.1-0.4-22-2.3-33.1-2.5
		c-16.5-0.4-33-2.3-49.6-3.7c-10.2-0.8-20.5-1.7-30.8-2.3c-14.7-0.8-29.4-2.4-44.1-3.7c-10.2-0.9-20.5-1.4-30.7-2.3
		c-15.7-1.3-31.4-2.7-47.1-3.7c-9.9-0.6-19.9-1.3-29.7-2.3c-19-2-38-2.9-57-4.5c-3.1-0.3-5.8-2.2-8.6-1.8
		c-11.7,1.8-23.1-1.4-34.7-1.7c-15.7-0.5-31.4-2.4-47.1-3.6c-10.9-0.8-21.9-1.3-32.7-2.4c-20.1-2-40.4-2.6-60.5-4.7
		c-7.3-0.8-14.6-0.7-21.9-1.2c-15-1.1-30-2.5-45.1-3.7c-6.8-0.5-13.6-0.7-20.4-1.1c-18.4-1.3-36.7-2.4-55-4
		c-8.3-0.8-16.7-0.1-24.9-1.1c-17.3-2-34.7-2.4-52.1-3.5c-17.4-1.1-34.8-2.2-52.1-3.2c-19.4-1.1-38.8-1.5-58.2-2.9
		c-13.7-1-27.5-1.5-41.3-2c-15.8-0.5-31.5-1.4-47.3-2c-19.4-0.7-38.8-1.3-58.3-2c-22.2-0.8-44.5-1.4-66.8-2
		c-29.9-0.8-59.9-0.2-89.9-1.2c-1-1.2-2-1.2-3,0c-19.7,0-39.3,0-59,0c-3-0.9-5.9-1.1-9.1-0.4c-2.1,0.5-4.6,1.6-7,0.3
		c-0.4-2.3-2.2-2.7-4.1-2.9c-13.5-1.9-26.5-5.7-39.7-8.9c-14.8-3.5-29.7-7.1-44.4-10.9c-18.8-4.8-37.7-9.4-56.5-14.2
		C12.6,997.7,7.1,995,1,995z"/>
	<path class="st2" d="M2037.9,360.1c19.7-1.7,39.3-4,59-4.8c11.8-0.5,23.5-1.8,35.3-2.5c16-0.9,32.1-1.6,48.1-3.5
		c8.4-1,16.9-0.5,25.4-1.1c22.9-1.5,45.8-1.9,68.7-3.3c16.6-1.1,33.2-1.4,49.8-2c26.9-1,53.8-1.9,80.8-2c5.4,0,10.9-0.8,16.4-0.8
		c1.6,0,3.4-0.4,4.7,0.9c-0.7,0.7-1.3,1.6-2.1,2.1c-9,5.2-16.1,12.9-23.1,20.2c-9.4,9.8-16.1,21.8-20.8,34.7
		c-1.4,3.9-3.4,4.1-6.2,2.8c-5.5-2.6-11.4-3.6-17.3-4.3c-12.8-1.5-25,0.9-36.6,6.6c-10.8,5.3-18.8,13.5-25.6,23.1
		c-1.6,2.3-2.8,1.9-4.4,0.7c-17.3-12.4-45.5-7.6-59.5,8.4c-1.7,1.9-3.4,2.5-5.9,3c-7.3,1.3-14.4,3.3-19.2,10.8
		c119,0,237.3,0,355.6,0c0,90.7,0,181.3,0,272c-21.8-1.9-43.6-4.1-65.4-5.8c-19-1.4-38.1-2.7-57.1-4.1c-22.7-1.6-45.4-2.5-68.1-3.9
		c-15.1-0.9-30.2-1.4-45.3-2c-18.9-0.8-37.9-1.1-56.8-2.1c-17.1-0.9-34.3,0.3-51.4-1c-14.9-1.1-29.9-0.8-44.9-0.8
		c-50.9-0.3-101.8-1-152.7,0.4c-19.8,0.6-39.6,1.4-59.4,1.2c-21-0.2-41.9,1-62.8,1.7c-19.9,0.7-39.9,1-59.8,2
		c-16.7,0.9-33.5,1.5-50.3,2c-22.9,0.7-45.8,1.9-68.7,3.3c-16.9,1-33.8,1.5-50.7,2.5c-20.4,1.3-40.8,2.4-61.2,3.6
		c-8.1,0.5-16.3,0.3-24.4,1c-19.8,1.7-39.7,3-59.6,3.9c-10.6,0.5-21.2,1.7-31.8,2.2c-16.9,0.8-33.7,2.5-50.6,3.7
		c-11.4,0.8-22.9,1.5-34.3,2.4c-17.2,1.3-34.4,2.7-51.6,3.7c-9.3,0.5-18.5,1.7-27.8,2.2c-15.4,0.8-30.7,2.6-46.1,3.6
		c-10.9,0.8-21.9,1.6-32.8,2.4c-15.4,1.2-30.7,2.7-46.1,3.7c-9.6,0.6-19.2,1.5-28.8,2.3c-15.5,1.3-31.1,2.5-46.6,3.7
		c-10.1,0.8-20.2,1.3-30.3,2.3c-15.5,1.6-31.1,2.6-46.6,3.7c-9.4,0.7-18.9,1.5-28.3,2.2c-16.5,1.3-33.1,2.7-49.6,3.8
		c-9.8,0.7-19.6,1.3-29.3,2.3c-16.2,1.5-32.4,2.6-48.6,3.7c-1.7,0-3.4,0-5.1,0c-1.6,0.3-3.3,0.6-4.9,0.9c-0.6-0.3-1.3-0.9-1.7-0.7
		c-6.3,1.7-12.6,0-18.7-1c-10.9-1.7-21.9-3-32.9-5c-15.6-2.8-31.6-3.7-47.2-6.5c-21.7-3.9-43.5-6.3-65.2-9.5
		c-21.4-3.2-43.1-5-64.5-8.4c-19.8-3.2-39.7-5-59.6-7.7c-12.6-1.8-25.3-3.4-37.9-4.9c-8.9-1.1-17.8-2.1-26.6-3.1
		c-9.4-1.1-18.7-2.2-28.1-3.3c-10.5-1.2-21-2.4-31.6-3.7c-10.5-1.2-21-2.5-31.6-3.7c-12.8-1.5-25.6-3.1-38.5-4.2
		c-10.6-0.9-21-2.9-31.6-3.6c-11.7-0.7-23.4-2.6-35.1-3.4c-8.4-0.5-16.8-1.7-25.2-2.6c-13-1.4-26.1-2.1-39.1-3.6
		c-9.6-1.1-19.2-1.4-28.7-2.4c-14.2-1.5-28.4-2.5-42.6-3.5c-10.6-0.8-21.2-1.3-31.7-2.4c-21.3-2.2-42.7-2-63.9-4.8
		c-11.1-1.4-22.2-0.8-33.3-1.7C45.5,680.6,23.2,680,1,679c0-22,0-44,0-66c20.6-1,41.1-2,61.7-3.1c16.2-0.9,32.5-2,48.7-3.1
		c15-1,30.1-2,45.1-3.4c10.2-1,20.5-1.5,30.8-2.3c14.7-1.2,29.4-2.1,44.1-3.7c9.2-1,18.5-1.5,27.8-2.3c12.7-1.1,25.4-2.5,38.1-3.7
		c8.9-0.9,17.8-1.5,26.7-2.4c11.5-1.2,23.1-2.4,34.6-3.6c7.9-0.8,15.8-1.6,23.7-2.4c10.9-1.1,21.7-2.3,32.6-3.4
		c8.2-0.9,16.5-2.1,24.7-2.4c6.2-0.2,12.1-1.8,18.2-2.3c14.3-1.2,28.6-3.5,42.9-5.2c13.5-1.6,27-3,40.5-4.7c8.2-1,16.4-2.3,24.6-3.4
		c13.1-1.6,26.3-3,39.4-4.6c7.1-0.9,14.1-2.1,21.1-3c14.1-2,28.2-3.9,42.3-5.9c25.3-3.6,50.5-7.2,75.8-10.6
		c25.4-3.4,50.8-7.8,76.3-10.6c11.7-1.3,23.2-3.8,34.9-5.5c14.7-2.2,29.5-4.2,44.3-6.4c11.6-1.7,23.2-3.6,34.9-5.4
		c15.1-2.3,30.2-4.4,45.2-6.6c11.3-1.7,22.5-3.9,33.9-5.3c15.4-1.9,30.6-5.5,46.2-6.6c-0.5,2.3-2.5,3-4.2,4
		c-11.5,6.7-21.9,15.1-31.4,24.3c-11,10.6-20.9,22.3-28.9,35.4c-5,8.1-5.2,7.9-12.9,2.7c-0.4-0.3-0.9-0.5-1.3-0.7
		c-12.1-7.7-24.9-13.5-38.9-17.2c-18.1-4.8-36.2-4.4-54.3-1.9c-12.8,1.8-25,6.1-36.9,11.3c-20.2,8.8-37.8,20.7-50.4,39.1
		c-1.2,1.7-2.5,1.9-4.2,2c-11.4,0.8-22.6,2.6-33.4,7c-11.1,4.5-21,10.6-29.5,18.9c-2,1.9-4.8,4.4-3.9,7c0.8,2.4,4.5,1,6.8,1
		c480.1,0.1,960.2,0.1,1440.3,0.1c84.7,0,169.3,0,254,0c6.8,0,6.9-0.1,4.5-6.2c-5.6-14.4-13.1-27.5-23.1-39.3
		c-14.5-17.1-32.6-28.8-53.6-36.4c-15.6-5.6-31.8-6.7-48.1-6.1c-14.8,0.6-28.7,5-42.2,10.5c-2.4,1-3.8,0.9-5.8-0.4
		c-4.7-3.1-9.3-6.6-14.5-8.8c-20.2-8.7-41-15-63.2-16.6c-5.6-0.4-11.3,0-16.8-1.5c-2.2-0.6-3.5-1.4-4.1-3.6
		c-3.1-12.6-8-24.5-13.4-36.3c-6.6-14.4-15.1-27.7-24.5-40.4c-11.3-15.4-24.3-29.3-38.7-41.9c-12-10.5-24.9-19.8-38.3-28.5
		C2045.3,365.9,2040.1,365,2037.9,360.1z"/>
	<path class="st2" d="M2561,1358c-7.1,0.4-14.3,0.4-21.4-0.7c-1.6-0.2-3.3-0.6-5-0.6c-23.5-0.1-46.9-2-70.3-2.8
		c-21.4-0.7-42.9-0.8-64.3-2.3c-13.3-0.9-26.7-0.3-39.9-1.6c-18.8-1.9-37.7-0.3-56.4-2.1c-22.6-2.1-45.3-0.4-67.8-2.1
		c-19.8-1.5-39.7-0.5-59.4-2c-23-1.8-46-0.2-68.9-1.9c-27.9-2.1-55.9-0.7-83.9-2.2c-1.4-1.1-3-0.6-4.5-0.8
		c-6.8-0.2-13.5-0.5-20.3-0.7c-0.7-1.3-1.9-1.1-3-1.3c-11.8-1.5-23.6-3-35.5-4.7c-12.6-1.7-25.2-4-37.9-5.2
		c-12.4-1.2-24.6-3.6-36.9-4.8c-8.2-0.8-16.4-2.3-24.6-3.3c-12.7-1.6-25.3-3-38-4.5c-14.6-1.8-29.2-3.7-43.9-5.5
		c-13.2-1.6-26.3-3.1-39.5-4.6c-9.5-1.1-19.1-2.5-28.6-3.4c-14-1.3-28-3-42-4.5c-11.5-1.2-23.1-2.2-34.6-3.7
		c-7.4-0.9-14.8-1.5-22.2-2.4c-11.5-1.5-23.1-2.2-34.6-3.5c-8.1-0.9-16.1-1.6-24.2-2.5c-12-1.3-24-2.7-36.1-3.5
		c-8.6-0.6-17.2-1.7-25.7-2.5c-12.5-1.3-25.1-2.5-37.6-3.4c-9.3-0.7-18.5-1.7-27.7-2.5c-14.7-1.3-29.4-2.6-44.1-3.6
		c-9.3-0.6-18.6-1.3-27.7-2.3c-20.3-2.4-40.6-3.4-60.9-5.3c-18.6-1.8-37.4-2.7-56.1-4c-18.9-1.3-37.7-3.1-56.6-4
		c-18.9-0.9-37.8-2.1-56.7-3.4c-14.6-1-29.2-1.8-43.7-2.5c-20.1-1-40.1-2.1-60.1-3.4c-14.8-1-29.5-0.7-44.3-1.8
		c-20.4-1.5-40.8-1.9-61.2-2.9c-17.7-0.9-35.5-1.4-53.3-2c-18.3-0.6-36.5-1.5-54.8-2c-23.9-0.7-47.9-1.3-71.8-2
		c-27.4-0.7-54.9-1.1-82.3-2c-36.4-1.2-72.9-0.5-109.4-0.9c-64.6-0.6-129.2-1.4-193.9,0.6c-32.6,1-65.3-1-97.9,1
		c-11.8,0.7-23.6,0.4-35.4,0.8c-26.3,0.8-52.5,0.7-78.8,2c-21.9,1.1-43.9,1.3-65.8,1.9c-23.6,0.7-47.2,1.9-70.8,2.4
		c0-45.3,0-90.7,0-136c10.3,0.6,20.4,2.1,30.6,3.3c22.4,2.6,44.7,5.5,67.1,7.7c10.7,1.1,21.5,1.8,32.1,3.3c14.8,2,29.6,3.2,44.5,4.8
		c10.2,1.1,20.4,2.3,30.6,3.4c15.5,1.7,31,3,46.5,4.6c11.7,1.2,23.5,1.8,35.1,3.3c13.5,1.8,27,2.5,40.6,3.9
		c8.1,0.8,16.1,1.7,24.3,2.3c12.4,0.9,24.7,2.8,37.1,3.4c10.3,0.5,20.6,1.6,30.7,2.6c19.6,2,39.3,3.4,58.9,5.3
		c13.3,1.3,26.7,2.4,40.1,3.2c20.2,1.3,40.3,3.4,60.5,4.8c18.7,1.2,37.4,2.9,56.1,4.1c20,1.2,40,2.8,60.1,4.1
		c21.5,1.4,43,2.6,64.6,3.9c19.2,1.2,38.4,2,57.7,3.2c16.7,1.1,33.5,1.5,50.2,2.7c12.9,1,25.8,1.4,38.8,2c14.1,0.7,28.2,1.4,42.3,2
		c15.8,0.6,31.5,1.3,47.3,2c17.6,0.8,35.2,1.3,52.8,2c18.8,0.7,37.5,1.3,56.3,2c24.1,0.8,48.2,1.4,72.3,2c31.4,0.8,62.9,0.8,94.3,2
		c37.1,1.4,74.3,0.5,111.4,0.9c59.6,0.6,119.3,1.4,178.9-0.6c27.8-0.9,55.6,0.9,83.4-1c12.8-0.9,25.6-0.5,38.4-0.8
		c28.4-0.7,56.9-1.1,85.3-2.1c19.1-0.7,38.2-1,57.3-1.8c20.1-0.8,40.2-1.6,60.3-2.2c13.8-0.4,27.5-1.5,41.3-1.8
		c19.3-0.4,38.5-2.7,57.8-2.3c2,0,4,0.1,6-0.1c19.4-2.4,39.1-2.3,58.6-3.7c8.6-0.6,17.3-0.8,25.9-1.4c19.8-1.5,39.7-2.4,59.6-4
		c6.8-0.5,13.6-0.2,20.4-1c16.1-2,32.4-2.6,48.6-3.7c10.8-0.7,21.5-1.7,32.3-2.4c15.7-1.1,31.4-2.7,47.1-3.7
		c9.1-0.6,18.2-1.4,27.3-2.3c14.3-1.4,28.7-2.7,43.1-3.7c8.6-0.6,17.2-1.5,25.7-2.3c12-1.2,24.1-2.5,36.1-3.6
		c8.7-0.8,17.6-0.9,26.2-2.4c10.5-1.8,21.1-1.9,31.6-3.5c14.2-2.1,28.7-2.8,43-4.3c14.5-1.5,29-3.2,43.4-4.8
		C2561,1207.3,2561,1282.7,2561,1358z"/>
	<path class="st0" d="M1,1239c23.6-0.4,47.2-1.7,70.8-2.4c21.9-0.6,43.9-0.8,65.8-1.9c26.3-1.3,52.5-1.2,78.8-2
		c11.8-0.4,23.6-0.1,35.4-0.8c32.6-2,65.3,0,97.9-1c64.6-2,129.3-1.1,193.9-0.6c36.5,0.3,72.9-0.3,109.4,0.9
		c27.4,0.9,54.9,1.3,82.3,2c23.9,0.7,47.9,1.3,71.8,2c18.3,0.5,36.5,1.3,54.8,2c17.8,0.6,35.5,1.1,53.3,2c20.4,1,40.8,1.4,61.2,2.9
		c14.8,1.1,29.5,0.8,44.3,1.8c20,1.4,40.1,2.4,60.1,3.4c14.5,0.7,29.1,1.5,43.7,2.5c18.9,1.3,37.8,2.4,56.7,3.4
		c18.9,0.9,37.7,2.7,56.6,4c18.7,1.3,37.4,2.2,56.1,4c20.3,2,40.6,3,60.9,5.3c9.2,1.1,18.5,1.7,27.7,2.3c14.7,1,29.4,2.3,44.1,3.6
		c9.2,0.8,18.5,1.8,27.7,2.5c12.6,0.9,25.1,2.1,37.6,3.4c8.6,0.9,17.1,2,25.7,2.5c12.1,0.8,24.1,2.2,36.1,3.5
		c8,0.9,16.1,1.6,24.2,2.5c11.5,1.3,23.1,2.1,34.6,3.5c7.4,0.9,14.8,1.5,22.2,2.4c11.5,1.5,23.1,2.5,34.6,3.7c14,1.5,28,3.1,42,4.5
		c9.6,0.9,19.1,2.2,28.6,3.4c13.2,1.5,26.3,3,39.5,4.6c14.6,1.8,29.2,3.7,43.9,5.5c12.7,1.5,25.3,2.9,38,4.5
		c8.2,1,16.4,2.5,24.6,3.3c12.4,1.2,24.6,3.6,36.9,4.8c12.7,1.2,25.3,3.5,37.9,5.2c11.8,1.6,23.6,3.1,35.5,4.7c1.2,0.1,2.4,0,3,1.3
		c-15.8,1-31.7,0.5-47.4-0.3c-36-1.8-72-0.5-107.9-2.1c-51.6-2.3-103.3-0.5-154.9-2.1c-68.6-2.2-137.3-0.2-205.9-2
		c-90.1-2.3-180.3-1.6-270.4-0.7c-70.5,0.7-140.9,0.1-211.4,1.9c-51.1,1.3-102.3,0.3-153.4,2.1c-35.8,1.2-71.6,0.3-107.4,2
		c-25.3,1.2-50.6,0.4-75.9,1.9c-28,1.7-56,0.4-83.9,2.1c-26.6,1.6-53.3,0.5-79.9,2.1c-16.6,1-33.3,0.5-49.8,1.9
		c-18.5,1.5-36.9,1-55.4,1.8c-21.4,0.9-42.9,1.3-64.3,2.3c-15.5,0.7-31,0.5-46.4,1.8c-19.1,1.6-38.3,0.6-57.4,2.1
		c-15.6,1.2-31.3,0.7-46.9,1.8c-28.5,2.1-57.1,2.8-85.7,4.2c-25.1,1.2-50.1,3.4-75.2,3.8c-6.3,0.1-12.5,2-18.9,1.2
		C1,1322.3,1,1280.7,1,1239z"/>
	<path class="st3" d="M893,771c16.2-1.1,32.4-2.1,48.6-3.7c9.7-0.9,19.5-1.6,29.3-2.3c16.6-1.1,33.1-2.5,49.6-3.8
		c9.4-0.7,18.9-1.6,28.3-2.2c15.5-1.1,31.1-2.1,46.6-3.7c10-1,20.2-1.5,30.3-2.3c15.5-1.3,31.1-2.4,46.6-3.7
		c9.6-0.8,19.2-1.6,28.8-2.3c15.4-1,30.8-2.5,46.1-3.7c10.9-0.9,21.8-1.7,32.8-2.4c15.4-1.1,30.7-2.8,46.1-3.6
		c9.3-0.5,18.5-1.7,27.8-2.2c17.2-1,34.4-2.4,51.6-3.7c11.4-0.9,22.9-1.6,34.3-2.4c16.9-1.2,33.7-2.9,50.6-3.7
		c10.6-0.5,21.2-1.7,31.8-2.2c19.9-0.9,39.8-2.2,59.6-3.9c8.1-0.7,16.3-0.6,24.4-1c20.4-1.2,40.8-2.3,61.2-3.6
		c16.9-1.1,33.8-1.5,50.7-2.5c22.9-1.4,45.8-2.6,68.7-3.3c16.8-0.5,33.6-1.1,50.3-2c19.9-1,39.9-1.3,59.8-2
		c20.9-0.7,41.9-1.9,62.8-1.7c19.8,0.2,39.6-0.7,59.4-1.2c50.9-1.4,101.8-0.7,152.7-0.4c14.9,0.1,30-0.2,44.9,0.8
		c17.1,1.3,34.3,0.1,51.4,1c18.9,1,37.9,1.4,56.8,2.1c15.1,0.6,30.2,1,45.3,2c22.7,1.4,45.4,2.3,68.1,3.9c19,1.3,38.1,2.6,57.1,4.1
		c21.8,1.7,43.6,3.8,65.4,5.8c0,2.3,0,4.7,0,7c-1,0.2-2,0.2-2.9,0.5c-12.9,3.3-25.8,6.6-38.7,9.9c-7.4,1.8-14.8,3.3-22.2,5.2
		c-12.5,3.1-25,6.4-37.5,9.4c-13.4,3.2-26.7,6.3-40.1,9.3c-10.5,2.4-21.1,4.5-31.6,6.7c-17.7,3.7-35.3,7.5-53,11.2
		c-8.1,1.7-16.3,3-24.3,4.9c-7.2,1.7-14.6,2.3-21.6,4.9c-5.3,1-10.6,1.2-15.9,1.2c-24.8-0.4-49.5-1.1-74.3-2
		c-32.1-1.1-64.3-0.1-96.4-0.9c-41.6-1-83.2-0.5-124.8-0.2c-37,0.2-73.9-0.3-110.9,0.7c-42.1,1.1-84.2,0.4-126.3,2
		c-26.2,1-52.5,0.9-78.8,2c-21.7,0.9-43.5,1-65.3,2c-17.1,0.8-34.2,1.6-51.3,2c-26.9,0.6-53.8,1.7-80.7,3.4
		c-14.1,0.9-28.2,0.3-42.3,1.8c-17,1.8-34.1,1.8-51.2,2.7c-19.7,1-39.5,2.1-59.2,3.4c-15.1,1-30.1,1.7-45.2,2.7
		c-17.7,1.2-35.4,2.1-53.2,3.3c-13,0.9-26.1,1.4-39.2,3.4c15,2.5,30,5.6,45,7.4c19.4,2.3,38.6,6.1,58,8.6c23,3,45.9,7,68.8,10.6
		c13.6,2.1,27.2,4.1,40.8,6.1c10.5,1.6,20.9,3.3,31.4,4.8c11,1.6,22,2.9,33,4.6c12.9,2,25.8,4.2,38.9,5.4c-0.5,2.4-2.4,2-4,2
		c-34.5,0-69,0.5-103.5-0.2c-22.1-0.5-44.2-1.1-66.3-2c-17.8-0.7-35.5-1.5-53.3-1.9c-12.9-0.4-25.9-0.9-38.8-2
		c-19.8-1.6-39.7-2.3-59.6-3.8c-17.7-1.3-35.4-2.6-53-4c-19.5-1.6-38.9-3.4-58.4-5.3c-23.4-2.2-46.8-4.9-70.1-7.3
		c-21.3-2.2-42.4-5.4-63.6-7.5c-17.8-1.8-35.4-5-53.1-7.5c-15.4-2.2-30.9-4.1-46.3-6.4c-15.2-2.3-30.4-4.8-45.6-7.3
		c-14.2-2.3-28.5-4.2-42.7-6.8c-9.7-1.8-19.5-3.5-29.3-5.3c-12.4-2.3-24.8-4.2-37.2-6.7c-6.8-1.4-13.8-1.7-20.6-4.2
		c2.1-1.6,4.6,0.1,6.2-1.8c10,0.2,20,0.1,29.8-1.2c7.5-1,15-0.2,22.4-1c19.3-2.1,38.7-2.9,58-3.8c10.1-0.5,20.1-1.9,30.2-2.3
		c17-0.7,34-2.6,51-3.6c12.9-0.8,25.7-2.9,38.7-2.2c0.6,0,1.2-0.5,1.7-0.8c1.6-0.3,3.3-0.6,4.9-0.9C889.7,772.4,891.3,772.4,893,771
		z"/>
	<path class="st4" d="M2561,1132c-14.5,1.6-28.9,3.3-43.4,4.8c-14.3,1.5-28.8,2.3-43,4.3c-10.5,1.5-21.1,1.7-31.6,3.5
		c-8.6,1.5-17.5,1.5-26.2,2.4c-12,1.1-24.1,2.4-36.1,3.6c-8.6,0.8-17.1,1.7-25.7,2.3c-14.4,1-28.7,2.3-43.1,3.7
		c-9.1,0.9-18.2,1.7-27.3,2.3c-15.7,1-31.4,2.6-47.1,3.7c-10.8,0.7-21.5,1.7-32.3,2.4c-16.2,1.1-32.4,1.8-48.6,3.7
		c-6.7,0.8-13.6,0.5-20.4,1c-19.8,1.6-39.7,2.5-59.6,4c-8.6,0.6-17.3,0.8-25.9,1.4c-19.5,1.4-39.1,1.2-58.6,3.7c-2,0.2-4,0.1-6,0.1
		c-19.3-0.4-38.5,2-57.8,2.3c-13.7,0.3-27.5,1.4-41.3,1.8c-20.1,0.6-40.2,1.4-60.3,2.2c-19.1,0.8-38.2,1.1-57.3,1.8
		c-28.4,1-56.9,1.5-85.3,2.1c-12.8,0.3-25.6-0.1-38.4,0.8c-27.8,1.9-55.6,0.1-83.4,1c-59.6,2-119.3,1.2-178.9,0.6
		c-37.1-0.4-74.3,0.5-111.4-0.9c-31.4-1.2-62.9-1.2-94.3-2c-24.1-0.6-48.2-1.2-72.3-2c-18.8-0.6-37.5-1.3-56.3-2
		c-17.6-0.7-35.2-1.3-52.8-2c-15.8-0.7-31.5-1.3-47.3-2c-14.1-0.6-28.2-1.3-42.3-2c-12.9-0.6-25.9-1.1-38.8-2
		c-16.7-1.2-33.5-1.7-50.2-2.7c-19.2-1.2-38.5-2-57.7-3.2c-21.5-1.3-43.1-2.5-64.6-3.9c-20-1.3-40-2.8-60.1-4.1
		c-18.7-1.2-37.4-2.8-56.1-4.1c-20.2-1.3-40.3-3.5-60.5-4.8c-13.4-0.9-26.8-2-40.1-3.2c-19.6-1.9-39.3-3.3-58.9-5.3
		c-10.2-1-20.4-2.1-30.7-2.6c-12.4-0.6-24.7-2.5-37.1-3.4c-8.1-0.6-16.2-1.5-24.3-2.3c-13.5-1.3-27.1-2.1-40.6-3.9
		c-11.7-1.5-23.4-2.1-35.1-3.3c-15.5-1.5-31-2.9-46.5-4.6c-10.2-1.1-20.4-2.3-30.6-3.4c-14.8-1.5-29.7-2.7-44.5-4.8
		c-10.7-1.5-21.4-2.2-32.1-3.3c-22.4-2.2-44.8-5.1-67.1-7.7c-10.2-1.2-20.4-2.7-30.6-3.3c0-21.3,0-42.7,0-64
		c12.5-2.5,25.2-0.8,37.8-1.7c20.4-1.4,40.9-0.1,61.3-1.1c17.9-0.9,35.9-0.2,53.9-0.2c1,1.2,2,1.2,3,0c2,0,4,0,6,0
		c2.4,1.3,4.8,0.2,7-0.3c3.2-0.8,6.1-0.5,9.1,0.4c1.1,4.9,5.1,2.4,7.8,3.1c18.7,5.2,37.9,8.4,56.8,12.7c17.1,3.9,34.5,6.6,51.7,10.2
		c11.3,2.4,22.8,3.9,34.1,6.6c10.4,2.5,21.2,3.5,31.8,5.3c9.9,1.7,19.8,3.5,29.8,5.2c8.6,1.5,17.3,2.8,26,4.3
		c8.6,1.5,17.2,3.1,25.9,4.5c13.4,2.1,26.8,4,40.3,6c11,1.6,21.9,3.8,32.9,4.9c16.8,1.7,33.4,5.2,50.3,6.5c11.9,1,23.6,3.1,35.5,4.6
		c10.8,1.4,21.7,2.6,32.5,3.8c9.7,1.1,19.4,2.5,29.1,3.1c9.1,0.5,18.1,2,27.2,2.6c6.5,0.4,13.2,1.2,19.8,1.9
		c12.5,1.2,25,2.8,37.6,3.6c10.6,0.7,21.2,1.7,31.7,2.5c15.9,1.2,31.7,2.6,47.6,3.4c11.9,0.6,23.8,2,35.7,2.5
		c19.9,0.9,39.7,2.2,59.6,3.4c19.2,1.1,38.5,1,57.8,2.1c16.3,1,32.6-0.2,48.9,1c15.7,1.1,31.6,0.4,47.4,0.8
		c32.1,0.9,64.2,0.7,96.3-0.2c18.1-0.5,36.2-0.4,54.3-1.3c18.9-1,37.8-1.7,56.8-2c27.4-0.4,54.8-2.1,82.1-3.5c7.5-0.4,15-0.1,22.4-1
		c17.3-2.2,34.7-2.5,52.1-3.8c10.4-0.8,20.9-1.4,31.2-2.4c14.7-1.4,29.4-2.4,44.1-3.7c8.1-0.7,16.1-2,24.2-2.4c4.3-0.2,9-0.3,13-2.6
		c6.8-3,13.3,1.6,20,1c10.3-0.2,20.5,1.3,30.8,1.8c18.6,0.8,37.2,1.8,55.7,3.4c12.4,1.1,24.9,0.4,37.3,1.7
		c17.8,1.9,35.8,1.5,53.7,2.9c14.2,1.1,28.5,1.5,42.8,2.1c15.8,0.7,31.5,1.4,47.3,2c17.3,0.7,34.5,1.5,51.8,1.8
		c29.6,0.6,59.2,1.6,88.8,2.3c23.3,0.6,46.6,0.4,69.9,0.7c41.8,0.6,83.6,0.9,125.4-0.4c36.7-1.1,73.6,0.4,110.3-2.2
		c11.1-0.8,22.2,0,33.4-0.8c19.4-1.4,38.9-1.2,58.3-2.4c8.6-0.5,17.4,0.1,25.9-1.1c16.1-2.2,32.4-2.2,48.6-3.4
		c17.9-1.3,35.7-2.7,53.6-3.6c5.3-0.3,10.6-0.5,15.9-1c12.8-1.4,25.7-2.5,38.6-3.7C2561,1123.3,2561,1127.7,2561,1132z"/>
	<path class="st3" d="M2561,1119c-12.9,1.2-25.7,2.4-38.6,3.7c-5.3,0.6-10.6,0.8-15.9,1c-17.9,0.9-35.8,2.4-53.6,3.6
		c-16.2,1.2-32.5,1.2-48.6,3.4c-8.5,1.2-17.2,0.5-25.9,1.1c-19.4,1.2-38.9,1-58.3,2.4c-11.2,0.8-22.3,0.1-33.4,0.8
		c-36.7,2.6-73.5,1-110.3,2.2c-41.8,1.3-83.6,1-125.4,0.4c-23.3-0.3-46.6-0.1-69.9-0.7c-29.6-0.8-59.2-1.7-88.8-2.3
		c-17.2-0.4-34.5-1.1-51.8-1.8c-15.8-0.6-31.5-1.3-47.3-2c-14.3-0.6-28.6-1-42.8-2.1c-17.9-1.4-35.9-1-53.7-2.9
		c-12.4-1.3-24.9-0.6-37.3-1.7c-18.5-1.6-37.1-2.6-55.7-3.4c-10.3-0.4-20.5-2-30.8-1.8c0.3-2.1,2-1.7,3.4-2
		c9.1-2.1,18.5-1.6,27.7-2.9c17.9-2.5,35.7-5.2,53.7-6.8c18-1.6,35.9-4.1,53.7-6.5c11.9-1.6,24-3.1,35.9-5.2
		c12.5-2.3,25.2-3.6,37.8-5.5c13.2-2,26.3-4.3,39.5-6.4c13.6-2.2,27.2-4,40.7-6.7c9.4-1.9,19-3.1,28.4-4.9
		c20.2-3.9,40.6-7.3,60.9-11c9.4-1.7,18.8-3.9,28.2-5.9c24-5,48-10,72.1-15c21.7-4.5,43.3-9.8,64.9-14.7
		c16.4-3.7,32.8-7.7,49.2-11.8c12.5-3.1,25.3-5.1,37.6-8.9c13.6-4.2,27.4-7.4,41.1-11c15-4,30.1-8,45.1-12.1
		c18.9-5.2,37.7-10.8,56.6-16.1c14.6-4.2,29.2-8.3,43.8-12.4c0.6-0.2,1.1-0.7,1.6-1c0.7,0,1.3,0,2,0c0.4-0.3,0.7-0.6,1.1-0.9
		c1.6,0,3.3-0.1,4.9-0.1c4.8,1.1,9.8,0.9,14.7,0.8c19.3-0.2,38.5,1.3,57.7,1.2c28.6-0.1,57.1,0.4,85.6-1
		C2561,1007.7,2561,1063.3,2561,1119z"/>
	<path class="st2" d="M2403,951c-1.6,0-3.3,0.1-4.9,0.1c-0.4,0.3-0.7,0.6-1.1,0.9c-0.7,0-1.3,0-2,0c-0.9-0.9-2.1-0.9-3.3-0.9
		c-13.5-0.2-26.9,0-40.4-0.8c-21.1-1.3-42.2-1.1-63.3-2.3c-14.4-0.8-28.9-0.9-43.3-1.9c-18.4-1.3-36.8-2-55.2-3.2
		c-19.2-1.2-38.4-2.5-57.6-3.9c-21.5-1.6-43-3.2-64.4-5c-19.3-1.6-38.6-3.4-57.9-5c-21.1-1.8-42.1-4.8-63.2-6.6
		c-11.9-1-23.8-2.3-35.6-3.3c-12.7-1.1-25.4-2.8-38-4.2c-11.2-1.2-22.4-2.5-33.6-3.7c-9.2-1.1-18.4-2.2-27.6-3.3
		c-13.5-1.6-27-3.1-40.5-4.7c-7.7-0.9-15.4-2-23.2-2.9c-11.3-1.4-22.7-2.6-34-4.1c-21.8-2.9-43.6-6-65.5-8.9
		c-26.1-3.5-52.3-6.4-78.3-10.3c-16.7-2.5-33.6-4-50.1-7.5c-2.6-0.5-5.3-0.2-8-0.3c0.7-2.9,3.2-1.9,5-1.9
		c14.8-0.5,29.6-0.1,44.4-0.7c16.6-0.6,33.2-1.3,49.8-1.4c7.5,0,14.9-0.4,22.4-0.7c24.6-0.9,49.1-2.3,73.6-3.3
		c6-0.2,11.9-0.8,17.9-1.2c19.5-1,39-2.3,58.5-4c7.5-0.6,14.9-0.5,22.4-1.1c13.5-1.2,27-2.5,40.5-3.7c9.7-0.9,19.6-1.3,29.2-2.4
		c14.6-1.7,29.3-2.7,44-4.5c11.5-1.4,23-2.9,34.5-3.8c9-0.6,17.7-2.3,26.6-3.3c13.5-1.5,27-3,40.4-4.6c7.7-0.9,15.4-2.3,23.1-3.3
		c11.8-1.6,23.6-2.9,35.4-4.5c7-1,14.1-2.1,21.1-3.4c11.5-2.1,23.3-3.1,34.9-5c13.8-2.2,27.6-5.2,41.5-7c10-1.3,19.9-3.3,29.9-4.9
		c17.9-2.8,35.8-6,53.6-9.5c4.1-0.8,8.9-0.2,12.3-3.7c5.3,0.1,10.7-0.2,15.9-1.2c4.3,2.5,9.3,1.5,13.9,1.8
		c17.2,1.1,34.5,1.4,51.7,2.1c14.9,0.7,29.8,0.4,44.7,1c16.6,0.7,33.2,1.4,49.7,2c21.6,0.8,43.1,1.9,64.6,3
		c15.8,0.8,31.6,0.8,47.4,1.1c0,32.7,0,65.3,0,98c-1.1,0.2-2.3,0.4-3.4,0.7c-17.1,5.8-34.2,11.7-51.3,17.4
		c-13.2,4.4-26.5,8.3-39.6,12.7c-16.4,5.5-32.9,10.4-49.4,15.5C2412.4,946.8,2407,947.2,2403,951z"/>
	<path class="st4" d="M883,772c-0.6,0.3-1.2,0.9-1.7,0.8c-13-0.7-25.8,1.4-38.7,2.2c-17,1-34,2.9-51,3.6
		c-10.1,0.4-20.1,1.8-30.2,2.3c-19.4,0.9-38.7,1.7-58,3.8c-7.4,0.8-14.9,0-22.4,1c-9.9,1.3-19.9,1.4-29.8,1.2
		c-18.5,1.3-37,2.6-55.5,3.9c-5.6,0.4-11.3,0.5-16.9,0.8c-7.9,0.4-15.9,1.4-23.9,1.3c-24.7-0.2-49.4,2.2-74.1,3.2
		c-7.3,0.3-14.6,0.4-21.9,0.8c-21.6,1.1-43.1,1.7-64.7,2.3c-20.7,0.6-41.5,1.3-62.2,1.9c-17.7,0.5-35.4,1.3-53.1,1.4
		c-62.4,0.6-124.8,0.4-187.2,0.3c-14.9,0-29.9,0-44.9-0.6c-15.2-0.6-30.4-2.5-45.6-1.3c0-40.7,0-81.3,0-122
		c22.2,1,44.5,1.6,66.6,3.2c11.1,0.9,22.2,0.3,33.3,1.7c21.2,2.7,42.7,2.6,63.9,4.8c10.5,1.1,21.2,1.6,31.7,2.4
		c14.2,1,28.4,2,42.6,3.5c9.5,1,19.2,1.3,28.7,2.4c13,1.5,26.1,2.2,39.1,3.6c8.4,0.9,16.8,2,25.2,2.6c11.7,0.7,23.4,2.6,35.1,3.4
		c10.6,0.7,21,2.7,31.6,3.6c12.9,1.1,25.7,2.8,38.5,4.2c10.5,1.2,21,2.5,31.6,3.7c10.5,1.2,21,2.4,31.6,3.7
		c9.4,1.1,18.7,2.2,28.1,3.3c8.9,1,17.8,2,26.6,3.1c12.6,1.6,25.3,3.2,37.9,4.9c19.8,2.8,39.8,4.5,59.6,7.7
		c21.4,3.4,43.1,5.2,64.5,8.4c21.7,3.3,43.6,5.7,65.2,9.5c15.6,2.8,31.6,3.7,47.2,6.5c10.9,2,21.9,3.3,32.9,5c6.1,1,12.4,2.7,18.7,1
		C881.7,771.1,882.4,771.7,883,772z"/>
	<path class="st5" d="M2561,449c-118.3,0-236.6,0-355.6,0c4.7-7.6,11.9-9.5,19.2-10.8c2.5-0.5,4.2-1,5.9-3c14-16,42.2-20.8,59.5-8.4
		c1.6,1.2,2.8,1.5,4.4-0.7c6.8-9.6,14.8-17.8,25.6-23.1c11.7-5.7,23.8-8,36.6-6.6c5.9,0.7,11.8,1.7,17.3,4.3
		c2.8,1.3,4.8,1.1,6.2-2.8c4.7-12.8,11.4-24.9,20.8-34.7c7-7.3,14.1-15,23.1-20.2c0.8-0.5,1.4-1.4,2.1-2.1c4.9-1,8.9-4.3,13.4-6.2
		c20.9-9,42.5-12.2,65.1-8.2c12.2,2.2,23.8,5.9,34.5,12c7.1,4,14.6,1.7,22,2.4C2561,377,2561,413,2561,449z"/>
	<path class="st4" d="M2561,801c-15.8-0.3-31.6-0.3-47.4-1.1c-21.5-1.1-43.1-2.3-64.6-3c-16.6-0.6-33.2-1.3-49.7-2
		c-14.9-0.6-29.8-0.3-44.7-1c-17.2-0.8-34.5-1.1-51.7-2.1c-4.5-0.3-9.5,0.8-13.9-1.8c7-2.6,14.4-3.2,21.6-4.9
		c8-1.9,16.2-3.2,24.3-4.9c17.7-3.7,35.3-7.4,53-11.2c10.5-2.2,21.1-4.4,31.6-6.7c13.4-3,26.8-6.1,40.1-9.3c12.5-3,25-6.3,37.5-9.4
		c7.4-1.8,14.8-3.3,22.2-5.2c12.9-3.2,25.8-6.6,38.7-9.9c1-0.2,2-0.3,2.9-0.5C2561,752.3,2561,776.7,2561,801z"/>
	<path class="st4" d="M2403,951c4-3.8,9.5-4.2,14.3-5.7c16.5-5.1,33-10.1,49.4-15.5c13.2-4.4,26.5-8.3,39.6-12.7
		c17.1-5.7,34.2-11.6,51.3-17.4c1.1-0.4,2.2-0.5,3.4-0.7c0,17.7,0,35.3,0,53c-28.5,1.3-57.1,0.9-85.6,1c-19.2,0.1-38.5-1.4-57.7-1.2
		C2412.8,951.8,2407.8,952.1,2403,951z"/>
	<path class="st3" d="M163,1036c-2,0-4,0-6,0c-1-1.2-2-1.2-3,0c-18,0-36-0.7-53.9,0.2c-20.5,1-40.9-0.3-61.3,1.1
		c-12.6,0.9-25.3-0.8-37.8,1.7c0-14.7,0-29.3,0-44c6.1,0,11.6,2.7,17.3,4.2c18.8,4.8,37.7,9.4,56.5,14.2
		c14.8,3.8,29.6,7.3,44.4,10.9c13.1,3.1,26.2,7,39.7,8.9C160.7,1033.3,162.6,1033.7,163,1036z"/>
	<path class="st5" d="M2037.9,360.1c2.2,4.9,7.4,5.8,11.3,8.3c13.4,8.7,26.3,18,38.3,28.5c14.4,12.6,27.4,26.5,38.7,41.9
		c9.4,12.7,17.8,26,24.5,40.4c5.4,11.8,10.3,23.7,13.4,36.3c0.5,2.2,1.8,3,4.1,3.6c5.5,1.6,11.3,1.1,16.8,1.5
		c22.2,1.7,43,7.9,63.2,16.6c5.1,2.2,9.7,5.8,14.5,8.8c2,1.3,3.4,1.4,5.8,0.4c13.5-5.5,27.4-9.9,42.2-10.5
		c16.4-0.7,32.5,0.4,48.1,6.1c21,7.6,39.1,19.2,53.6,36.4c10,11.8,17.5,25,23.1,39.3c2.3,6.1,2.3,6.2-4.5,6.2c-84.7,0-169.3,0-254,0
		c-480.1,0-960.2,0-1440.3-0.1c-2.4,0-6,1.4-6.8-1c-0.9-2.6,2-5.1,3.9-7c8.5-8.3,18.4-14.4,29.5-18.9c10.8-4.4,22-6.2,33.4-7
		c1.7-0.1,3.1-0.3,4.2-2c12.6-18.5,30.2-30.3,50.4-39.1c11.9-5.2,24.1-9.5,36.9-11.3c18.1-2.6,36.2-3,54.3,1.9
		c13.9,3.7,26.8,9.5,38.9,17.2c0.4,0.3,0.9,0.4,1.3,0.7c7.7,5.3,7.9,5.4,12.9-2.7c8.1-13.1,17.9-24.8,28.9-35.4
		c9.5-9.2,19.9-17.6,31.4-24.3c1.7-1,3.7-1.7,4.2-4c7.5-2.3,14.1-6.6,21.2-9.7c17-7.4,34.5-12.4,53-14.4c9.4-1,18.8-2.3,28.3-1.8
		c10.1,0.5,20.1,1.5,30.1,3.3c1.8,0.3,3.6,0.5,5.4,0.7c1,0.5,2,1.2,3.1,1.4c14.4,2.3,27.9,7.7,41,13.9c1.9,0.9,3.2,0.3,3.8-1.7
		c2.3-7.4,5.1-14.6,8.1-21.7c0.3-0.6,0.6-1.2,0.8-1.8c3.6-9.6,3.6-9.8-7.1-10c-5.8-0.1-11.6,0.8-17.4,0.8
		c-10.9-0.1-21.8-0.8-32.8-0.8c-12.9,0-25.9,1.3-38.7,0.6c-19.7-1.1-39.3-0.4-58.9-0.7c-14.8-0.2-29.6-0.5-44.3,0.1
		c-12.9,0.5-25.9,0.5-38.7,0.3c-18.6-0.2-37.3-0.2-55.9-0.4c-18.1-0.2-36.2-0.5-54.2,0.2c-8.2,0.3-16.6,0.9-24.7,0.4
		c-16.7-1-33.3-0.8-49.9-0.4c-11.7,0.2-23.4-0.6-35.2,0.3c-5.8,0.4-11.9-0.5-17.9-0.4c-12.4,0.1-24.9,1.4-37.2,0.6
		c-18.8-1.1-37.6-0.5-56.4-0.6c-26.8-0.2-53.6-0.4-80.3,0.1c-13.2,0.2-26.5,0.1-39.7,0.2c-10.7,0.1-21.5-0.1-32.3-0.2
		c-24.2-0.4-48.5-0.1-72.7-0.1c-22.2,0-44.5-0.5-66.7,0.2c-11.1,0.4-22.2,0-33.2,0.2c-11.6,0.2-23.3-0.2-34.9-0.4
		c-13.8-0.2-27.6-0.4-41.4,0.1c-11,0.4-21.9-0.2-32.8-0.2c-38.4,0.1-76.9,0-115.3,0.1c-11.9,0-23.8-0.1-35.6,0.1
		c-10.3,0.2-20.5-0.6-30.8-0.2c-8.8,0.3-17.6,0.8-26.4,0.9C32,450,32,449.7,36.2,439.5c10-24.6,27.5-42.1,51.1-53.5
		c11.9-5.7,24.5-9.1,38-9.1c13.2,0,26.2,0.1,38.6,5.4c2.4,1,3.3-0.9,4.5-2.1c7.5-7.8,15.3-15.3,24.4-21.3c18-11.9,37.4-20.4,59-24.2
		c12.7-2.2,25.2-1.9,37.8-1.4c12.9,0.5,25.5,3.8,37.7,8.4c12.2,4.5,23.6,10.7,34.1,18.3c3,2.2,4.3,1.6,5.9-1.7
		c9.7-20.2,23.8-37,40.6-51.8c18.6-16.4,39.9-28,63.1-36.2c13.4-4.7,27.3-7.8,41.6-9.3c5.5-0.6,10.9-1,16.4-0.9
		c2.5,0.1,3.9-1.2,5.2-3.2c9.2-13.7,20.1-26,32-37.5c22.9-22,49-39.2,78-52.2c24.4-10.9,49.9-18.2,76.3-21.9c23-3.3,46-3.1,69.1-0.6
		c19.9,2.2,39.4,6.3,58.2,12.7c17.6,5.9,34.7,13.5,51,22.7c20.5,11.7,39.3,25.6,56.4,41.7c13.8,13,25.9,27.5,36.6,43.3
		c10.8,15.9,19,33.1,26.3,50.8c2,4.7,3.6,9.7,4.9,14.6c0.7,2.7,2.1,3.4,4.6,3.4c25.8,0.3,50,7.3,72.5,19.3
		c20,10.7,37.4,24.7,49.1,44.6c1.6,2.7,3.2,3.9,6.3,1.6c12.5-9.4,26.6-15.6,41.6-19.8c4.9-1.4,10.1-2.2,15.2-2.6
		c16.8-1.3,33.5-0.5,49.8,3.9c8.7,2.3,17.4,4.5,25.4,8.7c3.8,2,6.4,1.3,8.9-2.1c18.3-25,40.1-46.5,64.6-65.3
		c24.1-18.5,50.4-33.3,78.7-44.5c20.9-8.3,42.4-14.7,64.5-18.4c16-2.7,32.1-4.5,48.5-4.7c10.5-0.1,20.9-0.1,31.3,0.4
		c27.5,1.3,54.3,6.6,80.5,15c17.4,5.6,34.2,12.6,50.5,20.8c23.6,11.8,45.1,26.8,65.2,43.8c1.9,1.6,4.2,2.9,5.7,4.8
		c4.5,6.1,9.5,6,16,3.2c19.8-8.4,40.7-12.9,62-15.9c18.3-2.6,36.6-2.3,54.8-1.4c17.3,0.9,34.3,4.7,51.3,9.1c17,4.4,33,10.7,49,17.7
		c3.8,1.7,7.6,3.4,11.1,5.6C2032.5,359.3,2035,360.2,2037.9,360.1z"/>
	<path class="st2" d="M1254,461c-3.1,7.1-5.9,14.3-8.1,21.7c-0.6,2-1.8,2.6-3.8,1.7c-13.1-6.2-26.5-11.6-41-13.9
		c-1.1-0.2-2.1-0.9-3.1-1.4c8,0.1,15.7-2.3,23.6-3.4C1232.4,464.1,1243.2,462.5,1254,461z"/>
	<path class="st0" d="M2019.3,1339c1.5,0.1,3.1-0.3,4.5,0.8C2022.2,1340,2020.7,1340.1,2019.3,1339z"/>
	<path class="st2" d="M1553,1118c-4,2.3-8.7,2.4-13,2.6c-8.1,0.4-16.2,1.7-24.2,2.4c-14.7,1.2-29.4,2.2-44.1,3.7
		c-10.4,1-20.8,1.6-31.2,2.4c-17.3,1.3-34.8,1.6-52.1,3.8c-7.4,0.9-14.9,0.7-22.4,1c-27.4,1.3-54.7,3.1-82.1,3.5
		c-18.9,0.3-37.9,1-56.8,2c-18.1,0.9-36.2,0.8-54.3,1.3c-32.1,0.9-64.2,1.1-96.3,0.2c-15.8-0.4-31.6,0.3-47.4-0.8
		c-16.3-1.2-32.6,0-48.9-1c-19.3-1.2-38.5-1-57.8-2.1c-19.8-1.2-39.7-2.5-59.6-3.4c-11.9-0.5-23.8-1.9-35.7-2.5
		c-15.9-0.8-31.7-2.1-47.6-3.4c-10.6-0.8-21.1-1.8-31.7-2.5c-12.6-0.8-25-2.4-37.6-3.6c-6.6-0.6-13.2-1.4-19.8-1.9
		c-9.1-0.6-18.1-2-27.2-2.6c-9.7-0.6-19.4-2-29.1-3.1c-10.9-1.2-21.7-2.5-32.5-3.8c-11.8-1.5-23.6-3.6-35.5-4.6
		c-16.9-1.4-33.4-4.8-50.3-6.5c-11-1.1-21.9-3.2-32.9-4.9c-13.4-2-26.9-3.9-40.3-6c-8.7-1.4-17.3-3-25.9-4.5
		c-8.7-1.5-17.3-2.8-26-4.3c-9.9-1.7-19.8-3.5-29.8-5.2c-10.6-1.8-21.4-2.8-31.8-5.3c-11.3-2.7-22.8-4.2-34.1-6.6
		c-17.2-3.7-34.6-6.4-51.7-10.2c-18.9-4.3-38.1-7.5-56.8-12.7c-2.7-0.8-6.8,1.7-7.8-3.1c19.7,0,39.3,0,59,0c1,1.2,2,1.2,3,0
		c29.9,1,59.9,0.5,89.9,1.2c22.3,0.6,44.5,1.2,66.8,2c19.4,0.7,38.8,1.3,58.3,2c15.8,0.6,31.5,1.4,47.3,2c13.8,0.5,27.5,1,41.3,2
		c19.4,1.4,38.8,1.8,58.2,2.9c17.4,1,34.8,2.1,52.1,3.2c17.4,1.1,34.8,1.5,52.1,3.5c8.2,1,16.6,0.3,24.9,1.1c18.3,1.7,36.7,2.8,55,4
		c6.8,0.5,13.6,0.6,20.4,1.1c15,1.2,30,2.6,45.1,3.7c7.3,0.5,14.6,0.4,21.9,1.2c20.1,2.1,40.3,2.7,60.5,4.7
		c10.9,1.1,21.8,1.6,32.7,2.4c15.7,1.2,31.4,3.1,47.1,3.6c11.6,0.3,23,3.5,34.7,1.7c2.9-0.4,5.6,1.5,8.6,1.8c19,1.7,38,2.6,57,4.5
		c9.9,1,19.8,1.7,29.7,2.3c15.7,1,31.4,2.4,47.1,3.7c10.2,0.9,20.5,1.4,30.7,2.3c14.7,1.3,29.4,2.9,44.1,3.7
		c10.3,0.6,20.5,1.4,30.8,2.3c16.5,1.4,33,3.3,49.6,3.7c11.1,0.3,22,2.1,33.1,2.5c15.5,0.6,31,2.7,46.6,3.5
		c9.5,0.5,18.8,1.7,28.3,2.2c19.5,1,39,2.5,58.6,3.9c6.9,0.5,13.9,0.8,20.9,1.2C1540.3,1116.4,1546.8,1116.5,1553,1118z"/>
	<path class="st4" d="M2273.1,791.1c-3.4,3.4-8.2,2.9-12.3,3.7c-17.8,3.6-35.7,6.8-53.6,9.5c-10,1.5-19.8,3.6-29.9,4.9
		c-13.9,1.8-27.6,4.8-41.5,7c-11.6,1.8-23.3,2.9-34.9,5c-7,1.3-14,2.4-21.1,3.4c-11.8,1.6-23.6,3-35.4,4.5c-7.7,1-15.4,2.4-23.1,3.3
		c-13.5,1.7-26.9,3.2-40.4,4.6c-8.9,1-17.7,2.6-26.6,3.3c-11.5,0.8-23.1,2.3-34.5,3.8c-14.6,1.8-29.3,2.8-44,4.5
		c-9.7,1.1-19.5,1.6-29.2,2.4c-13.5,1.2-27,2.6-40.5,3.7c-7.4,0.6-14.9,0.5-22.4,1.1c-19.5,1.7-39,2.9-58.5,4
		c-6,0.3-11.9,0.9-17.9,1.2c-24.5,1-49.1,2.4-73.6,3.3c-7.4,0.3-14.9,0.7-22.4,0.7c-16.6,0.1-33.3,0.7-49.8,1.4
		c-14.8,0.6-29.6,0.2-44.4,0.7c-1.8,0.1-4.2-1-5,1.9c-6.5,0.9-11.8-3.7-18.1-3.9c-0.6,0-1.2,0-1.9,0c-0.7,0-1.4,0-2.1,0
		c-13-1.2-25.9-3.4-38.9-5.4c-11-1.7-22-3-33-4.6c-10.5-1.5-20.9-3.2-31.4-4.8c-13.6-2.1-27.2-4-40.8-6.1
		c-22.9-3.5-45.8-7.6-68.8-10.6c-19.4-2.5-38.6-6.3-58-8.6c-15.1-1.7-30-4.9-45-7.4c13-2,26.1-2.5,39.2-3.4
		c17.7-1.2,35.5-2.2,53.2-3.3c15.1-1,30.1-1.7,45.2-2.7c19.7-1.2,39.4-2.3,59.2-3.4c17.1-0.9,34.2-0.9,51.2-2.7
		c14.1-1.5,28.2-0.9,42.3-1.8c26.9-1.7,53.8-2.7,80.7-3.4c17.1-0.4,34.2-1.1,51.3-2c21.8-1,43.5-1.1,65.3-2c26.3-1.1,52.6-1,78.8-2
		c42.1-1.6,84.2-0.9,126.3-2c37-1,73.9-0.4,110.9-0.7c41.6-0.3,83.2-0.8,124.8,0.2c32.1,0.8,64.3-0.2,96.4,0.9
		C2223.5,790,2248.3,790.8,2273.1,791.1z"/>
	<path class="st4" d="M241,1036c-1,1.2-2,1.2-3,0C239,1034.8,240,1034.8,241,1036z"/>
	<path class="st3" d="M1492.1,865c0.6,0,1.2,0,1.9,0c-0.1,0.6-0.1,1.4-0.9,1.4C1492.2,866.4,1492.1,865.7,1492.1,865z"/>
	<path class="st4" d="M893,771c-1.7,1.3-3.4,1.3-5.1,0C889.6,771.1,891.3,771.1,893,771z"/>
	<path class="st0" d="M154,1036c1-1.2,2-1.2,3,0C156,1037.2,155,1037.2,154,1036z"/>
	<path class="st0" d="M2396.9,951.9c0.4-0.3,0.7-0.6,1.1-0.9C2397.7,951.3,2397.3,951.6,2396.9,951.9z"/>
</g>
</svg>
